<svg aria-hidden="true" style="position: absolute; width: 0; height: 0; overflow: hidden;" version="1.1" xmlns="http://www.w3.org/2000/svg" xmlns:xlink="http://www.w3.org/1999/xlink">
<defs>

<symbol id="i-marketplace" viewBox="0 0 305 32">
<path fill="#fff" style="fill: var(--color1, #fff)" d="M11.398 22.168h0.603v-21.254h4.425v23.467h-8.649l-2.749-21.254h-0.603v21.254h-4.425v-23.467h8.649l2.749 21.254z"></path>
<path fill="#fff" style="fill: var(--color1, #fff)" d="M21.432 0.914h15.019v4.224h-10.594v5.364h10.392v4.224h-10.392v9.655h-4.425v-23.467z"></path>
<path fill="#fff" style="fill: var(--color1, #fff)" d="M40.819 0.914h16.896v4.224h-6.235v19.243h-4.425v-19.243h-6.235v-4.224z"></path>
<path fill="#fff" style="fill: var(--color1, #fff)" d="M80.8 0.914h7.778l1.341 17.633v3.419h0.805v-3.419l1.341-17.634h7.778v23.467h-4.023v-15.689l0.402-5.364h-0.805l-1.743 21.053h-6.638l-1.81-21.053h-0.805l0.402 5.364v15.689h-4.023v-23.467z"></path>
<path fill="#fff" style="fill: var(--color1, #fff)" d="M113.965 21.967c-0.447 1.050-1.073 1.799-1.877 2.246-0.805 0.425-1.743 0.637-2.816 0.637-1.006 0-1.956-0.19-2.85-0.57-0.872-0.38-1.643-0.939-2.313-1.676s-1.207-1.632-1.609-2.682c-0.38-1.050-0.57-2.246-0.57-3.587v-0.536c0-1.319 0.19-2.503 0.57-3.553s0.894-1.944 1.542-2.682c0.648-0.738 1.397-1.296 2.246-1.676 0.872-0.402 1.799-0.603 2.782-0.603 1.185 0 2.134 0.201 2.85 0.603 0.738 0.402 1.319 1.028 1.743 1.877h0.603v-2.011h4.224v11.599c0 0.67 0.302 1.006 0.905 1.006h0.637v4.023h-2.883c-0.76 0-1.386-0.224-1.877-0.67-0.469-0.447-0.704-1.028-0.704-1.743h-0.603zM110.21 20.827c1.229 0 2.213-0.402 2.95-1.207 0.738-0.827 1.106-1.944 1.106-3.352v-0.402c0-1.408-0.369-2.514-1.106-3.319-0.738-0.827-1.721-1.24-2.95-1.24s-2.213 0.413-2.95 1.24c-0.738 0.805-1.106 1.911-1.106 3.319v0.402c0 1.408 0.369 2.525 1.106 3.352 0.738 0.805 1.721 1.207 2.95 1.207z"></path>
<path fill="#fff" style="fill: var(--color1, #fff)" d="M122.926 7.753h7.040v2.414h0.603c0.313-0.916 0.838-1.62 1.576-2.112 0.76-0.514 1.665-0.771 2.715-0.771 1.654 0 2.984 0.525 3.989 1.576 1.006 1.028 1.509 2.604 1.509 4.727v0.738l-4.358 0.402v-0.469c0-0.916-0.235-1.643-0.704-2.179-0.469-0.559-1.173-0.838-2.112-0.838s-1.676 0.324-2.213 0.972c-0.536 0.648-0.805 1.576-0.805 2.782v5.364h3.822v4.023h-11.465v-4.023h3.419v-8.582h-3.017v-4.023z"></path>
<path fill="#fff" style="fill: var(--color1, #fff)" d="M149.822 13.854h0.805l4.425-6.101h4.626v0.201l-5.364 7.61v0.603l5.9 8.012v0.201h-4.827l-4.761-6.504h-0.805v6.504h-4.224v-23.467h4.224v12.94z"></path>
<path fill="#fff" style="fill: var(--color1, #fff)" d="M168.506 17.441c0.021 0.492 0.134 0.95 0.335 1.374 0.222 0.402 0.514 0.76 0.872 1.073 0.379 0.291 0.805 0.525 1.274 0.704 0.491 0.157 1.006 0.235 1.542 0.235 1.050 0 1.854-0.179 2.414-0.536 0.558-0.38 0.96-0.827 1.207-1.341l3.621 2.011c-0.201 0.425-0.482 0.872-0.838 1.341-0.358 0.447-0.827 0.86-1.408 1.24-0.559 0.38-1.253 0.693-2.078 0.939-0.805 0.246-1.755 0.369-2.85 0.369-1.253 0-2.392-0.201-3.419-0.603-1.029-0.402-1.923-0.983-2.682-1.743-0.738-0.76-1.32-1.687-1.743-2.782-0.402-1.095-0.603-2.336-0.603-3.721v-0.201c0-1.274 0.212-2.436 0.637-3.486 0.446-1.050 1.050-1.944 1.81-2.682 0.759-0.738 1.643-1.307 2.648-1.71 1.027-0.425 2.123-0.637 3.285-0.637 1.429 0 2.659 0.257 3.688 0.771 1.027 0.492 1.877 1.129 2.548 1.911 0.67 0.76 1.161 1.609 1.475 2.548 0.312 0.916 0.469 1.81 0.469 2.682v2.246h-12.203zM172.495 11.105c-1.073 0-1.944 0.279-2.615 0.838-0.67 0.536-1.106 1.162-1.307 1.877h7.845c-0.134-0.782-0.559-1.43-1.274-1.944-0.693-0.514-1.576-0.771-2.648-0.771z"></path>
<path fill="#fff" style="fill: var(--color1, #fff)" d="M184.841 7.753h4.928v-6.839h4.224v6.839h6.001v4.023h-6.001v7.576c0 0.67 0.302 1.006 0.905 1.006h4.492v4.023h-7.040c-0.759 0-1.385-0.246-1.877-0.738-0.469-0.492-0.704-1.117-0.704-1.877v-9.99h-4.928v-4.023z"></path>
<path fill="#fff" style="fill: var(--color1, #fff)" d="M209.19 31.085h-4.224v-23.333h4.224v2.414h0.603c0.446-0.916 1.096-1.62 1.944-2.112 0.849-0.514 1.934-0.771 3.252-0.771 0.983 0 1.911 0.19 2.782 0.57 0.894 0.38 1.666 0.939 2.313 1.676 0.67 0.715 1.196 1.598 1.576 2.648 0.402 1.050 0.603 2.246 0.603 3.587v0.603c0 1.363-0.19 2.57-0.57 3.621s-0.894 1.944-1.542 2.682c-0.648 0.715-1.419 1.263-2.313 1.643-0.872 0.358-1.821 0.536-2.85 0.536-0.76 0-1.419-0.078-1.978-0.235s-1.050-0.369-1.475-0.637c-0.402-0.268-0.748-0.57-1.039-0.905-0.268-0.358-0.503-0.726-0.704-1.106h-0.603v9.118zM213.615 20.827c1.318 0 2.38-0.402 3.185-1.207 0.827-0.827 1.24-1.944 1.24-3.352v-0.402c0-1.408-0.413-2.514-1.24-3.319-0.805-0.827-1.867-1.24-3.185-1.24s-2.391 0.425-3.218 1.274c-0.805 0.827-1.207 1.922-1.207 3.285v0.402c0 1.363 0.402 2.47 1.207 3.319 0.827 0.827 1.9 1.24 3.218 1.24z"></path>
<path fill="#fff" style="fill: var(--color1, #fff)" d="M226.264 20.358h5.833v-15.421h-5.632v-4.023h9.856v19.444h5.431v4.023h-15.488v-4.023z"></path>
<path fill="#fff" style="fill: var(--color1, #fff)" d="M257.652 21.967c-0.446 1.050-1.073 1.799-1.877 2.246-0.805 0.425-1.743 0.637-2.816 0.637-1.006 0-1.955-0.19-2.85-0.57-0.872-0.38-1.643-0.939-2.313-1.676s-1.207-1.632-1.609-2.682c-0.379-1.050-0.57-2.246-0.57-3.587v-0.536c0-1.319 0.19-2.503 0.57-3.553 0.381-1.050 0.894-1.944 1.542-2.682 0.649-0.738 1.397-1.296 2.246-1.676 0.872-0.402 1.8-0.603 2.782-0.603 1.186 0 2.135 0.201 2.85 0.603 0.738 0.402 1.32 1.028 1.743 1.877h0.603v-2.011h4.224v11.599c0 0.67 0.302 1.006 0.905 1.006h0.637v4.023h-2.883c-0.759 0-1.385-0.224-1.877-0.67-0.469-0.447-0.704-1.028-0.704-1.743h-0.603zM253.897 20.827c1.23 0 2.213-0.402 2.95-1.207 0.738-0.827 1.106-1.944 1.106-3.352v-0.402c0-1.408-0.369-2.514-1.106-3.319-0.738-0.827-1.72-1.24-2.95-1.24-1.228 0-2.213 0.413-2.95 1.24-0.738 0.805-1.106 1.911-1.106 3.319v0.402c0 1.408 0.369 2.525 1.106 3.352 0.738 0.805 1.722 1.207 2.95 1.207z"></path>
<path fill="#fff" style="fill: var(--color1, #fff)" d="M283.643 18.279c-0.379 1.967-1.285 3.554-2.715 4.76-1.408 1.207-3.296 1.81-5.666 1.81-1.23 0-2.38-0.19-3.453-0.57-1.050-0.38-1.967-0.928-2.749-1.643s-1.397-1.598-1.844-2.648c-0.446-1.050-0.67-2.246-0.67-3.587v-0.402c0-1.341 0.224-2.548 0.67-3.621s1.062-1.989 1.844-2.749c0.805-0.76 1.733-1.341 2.782-1.743 1.073-0.402 2.213-0.603 3.419-0.603 2.324 0 4.201 0.603 5.632 1.81 1.452 1.207 2.37 2.794 2.749 4.76l-4.157 1.073c-0.134-0.983-0.559-1.833-1.274-2.548s-1.72-1.073-3.017-1.073c-0.603 0-1.173 0.112-1.71 0.335s-1.006 0.548-1.408 0.972c-0.402 0.402-0.727 0.905-0.972 1.509-0.224 0.581-0.335 1.24-0.335 1.978v0.201c0 0.738 0.111 1.397 0.335 1.978 0.245 0.559 0.57 1.028 0.972 1.408s0.872 0.67 1.408 0.872c0.536 0.179 1.106 0.268 1.71 0.268 1.297 0 2.28-0.324 2.95-0.972 0.693-0.648 1.14-1.52 1.341-2.615l4.157 1.039z"></path>
<path fill="#fff" style="fill: var(--color1, #fff)" d="M291.666 17.441c0.023 0.492 0.134 0.95 0.335 1.374 0.224 0.402 0.514 0.76 0.872 1.073 0.379 0.291 0.805 0.525 1.274 0.704 0.492 0.157 1.006 0.235 1.542 0.235 1.050 0 1.854-0.179 2.414-0.536 0.559-0.38 0.962-0.827 1.207-1.341l3.621 2.011c-0.201 0.425-0.48 0.872-0.838 1.341-0.358 0.447-0.827 0.86-1.408 1.24-0.559 0.38-1.251 0.693-2.078 0.939-0.805 0.246-1.754 0.369-2.85 0.369-1.251 0-2.391-0.201-3.419-0.603s-1.922-0.983-2.682-1.743c-0.738-0.76-1.318-1.687-1.743-2.782-0.402-1.095-0.603-2.336-0.603-3.721v-0.201c0-1.274 0.212-2.436 0.637-3.486 0.446-1.050 1.050-1.944 1.81-2.682s1.643-1.307 2.648-1.71c1.029-0.425 2.123-0.637 3.285-0.637 1.431 0 2.659 0.257 3.688 0.771 1.029 0.492 1.877 1.129 2.548 1.911 0.67 0.76 1.163 1.609 1.475 2.548 0.312 0.916 0.469 1.81 0.469 2.682v2.246h-12.203zM295.656 11.105c-1.073 0-1.944 0.279-2.615 0.838-0.67 0.536-1.106 1.162-1.307 1.877h7.845c-0.134-0.782-0.559-1.43-1.274-1.944-0.693-0.514-1.576-0.771-2.648-0.771z"></path>
</symbol>
<symbol id="i-logo" viewBox="0 0 32 32">
<path fill="#a259ff" style="fill: var(--color2, #a259ff)" d="M6 12.45c0.552 0 1 0.448 1 1v12.55h18v-12.55c0-0.552 0.448-1 1-1s1 0.448 1 1v12.55c0 0.53-0.211 1.039-0.586 1.414s-0.884 0.586-1.414 0.586h-18c-0.53 0-1.039-0.211-1.414-0.586s-0.586-0.884-0.586-1.414v-12.55c0-0.552 0.448-1 1-1z"></path>
<path fill="#a259ff" style="fill: var(--color2, #a259ff)" d="M3 5c0-0.552 0.448-1 1-1h24c0.552 0 1 0.448 1 1s-0.448 1-1 1h-24c-0.552 0-1-0.448-1-1z"></path>
<path fill="#a259ff" style="fill: var(--color2, #a259ff)" d="M4 7c0.552 0 1 0.448 1 1v2c0 0.796 0.316 1.559 0.879 2.121s1.326 0.879 2.121 0.879c0.796 0 1.559-0.316 2.121-0.879s0.879-1.326 0.879-2.121v-2c0-0.552 0.448-1 1-1s1 0.448 1 1v2c0 1.326-0.527 2.598-1.464 3.535s-2.209 1.464-3.536 1.464-2.598-0.527-3.536-1.464c-0.938-0.938-1.464-2.209-1.464-3.535v-2c0-0.552 0.448-1 1-1z"></path>
<path fill="#a259ff" style="fill: var(--color2, #a259ff)" d="M12 7c0.552 0 1 0.448 1 1v2c0 0.796 0.316 1.559 0.879 2.121s1.326 0.879 2.121 0.879c0.796 0 1.559-0.316 2.121-0.879s0.879-1.326 0.879-2.121v-2c0-0.552 0.448-1 1-1s1 0.448 1 1v2c0 1.326-0.527 2.598-1.465 3.535s-2.209 1.464-3.535 1.464-2.598-0.527-3.535-1.464c-0.938-0.938-1.464-2.209-1.464-3.535v-2c0-0.552 0.448-1 1-1z"></path>
<path fill="#a259ff" style="fill: var(--color2, #a259ff)" d="M20 7c0.552 0 1 0.448 1 1v2c0 0.796 0.316 1.559 0.879 2.121s1.326 0.879 2.121 0.879c0.796 0 1.559-0.316 2.121-0.879s0.879-1.326 0.879-2.121v-2c0-0.552 0.448-1 1-1s1 0.448 1 1v2c0 1.326-0.527 2.598-1.465 3.535s-2.209 1.464-3.535 1.464-2.598-0.527-3.535-1.464c-0.938-0.938-1.465-2.209-1.465-3.535v-2c0-0.552 0.448-1 1-1z"></path>
</symbol>
<symbol id="i-ArrowRight" viewBox="0 0 32 32">
<path fill="#a259ff" style="fill: var(--color2, #a259ff)" d="M4 16c0-0.552 0.448-1 1-1h22c0.552 0 1 0.448 1 1s-0.448 1-1 1h-22c-0.552 0-1-0.448-1-1z"></path>
<path fill="#a259ff" style="fill: var(--color2, #a259ff)" d="M17.293 6.293c0.39-0.391 1.024-0.391 1.414 0l9 9c0.391 0.391 0.391 1.024 0 1.414l-9 9c-0.39 0.391-1.024 0.391-1.414 0s-0.391-1.024 0-1.414l8.293-8.293-8.293-8.293c-0.391-0.391-0.391-1.024 0-1.414z"></path>
</symbol>
<symbol id="i-Basketball" viewBox="0 0 32 32">
<path fill="none" stroke="#fff" stroke-width="0.96" stroke-miterlimit="4" stroke-linecap="round" stroke-linejoin="round" style="stroke: var(--color1, #fff)" d="M16 28c6.627 0 12-5.373 12-12s-5.373-12-12-12c-6.627 0-12 5.373-12 12s5.373 12 12 12z"></path>
<path fill="none" stroke="#fff" stroke-width="0.96" stroke-miterlimit="4" stroke-linecap="round" stroke-linejoin="round" style="stroke: var(--color1, #fff)" d="M7.5 7.526c2.244 2.25 3.503 5.298 3.5 8.475 0.003 3.177-1.256 6.225-3.5 8.475"></path>
<path fill="none" stroke="#fff" stroke-width="0.96" stroke-miterlimit="4" stroke-linecap="round" stroke-linejoin="round" style="stroke: var(--color1, #fff)" d="M24.501 7.526c-2.241 2.251-3.499 5.298-3.499 8.475s1.258 6.224 3.499 8.475"></path>
<path fill="none" stroke="#fff" stroke-width="0.96" stroke-miterlimit="4" stroke-linecap="round" stroke-linejoin="round" style="stroke: var(--color1, #fff)" d="M4 16h24"></path>
<path fill="none" stroke="#fff" stroke-width="0.96" stroke-miterlimit="4" stroke-linecap="round" stroke-linejoin="round" style="stroke: var(--color1, #fff)" d="M16 4v24"></path>
</symbol>
<symbol id="i-Burger-Menu" viewBox="0 0 32 32">
<path  d="M4 16c0-0.552 0.448-1 1-1h22c0.552 0 1 0.448 1 1s-0.448 1-1 1h-22c-0.552 0-1-0.448-1-1z"></path>
<path  d="M4 8c0-0.552 0.448-1 1-1h15c0.552 0 1 0.448 1 1s-0.448 1-1 1h-15c-0.552 0-1-0.448-1-1z"></path>
<path  d="M4 24c0-0.552 0.448-1 1-1h15c0.552 0 1 0.448 1 1s-0.448 1-1 1h-15c-0.552 0-1-0.448-1-1z"></path>
</symbol>
<symbol id="i-Camera" viewBox="0 0 32 32">
<path fill="none" stroke="#fff" stroke-width="0.96" stroke-miterlimit="4" stroke-linecap="round" stroke-linejoin="round" style="stroke: var(--color1, #fff)" d="M26 26h-20c-0.53 0-1.039-0.211-1.414-0.586s-0.586-0.884-0.586-1.414v-14c0-0.53 0.211-1.039 0.586-1.414s0.884-0.586 1.414-0.586h4l2-3h8l2 3h4c0.53 0 1.039 0.211 1.414 0.586s0.586 0.884 0.586 1.414v14c0 0.53-0.211 1.039-0.586 1.414s-0.884 0.586-1.414 0.586z"></path>
<path fill="none" stroke="#fff" stroke-width="0.96" stroke-miterlimit="4" stroke-linecap="round" stroke-linejoin="round" style="stroke: var(--color1, #fff)" d="M16 21c2.485 0 4.5-2.015 4.5-4.5s-2.015-4.5-4.5-4.5c-2.485 0-4.5 2.015-4.5 4.5s2.015 4.5 4.5 4.5z"></path>
</symbol>
<symbol id="i-Copy" viewBox="0 0 32 32">
<path fill="#fff" style="fill: var(--color1, #fff)" d="M10.286 5.524c0-0.526 0.426-0.952 0.952-0.952h15.238c0.526 0 0.952 0.426 0.952 0.952v15.238c0 0.526-0.426 0.952-0.952 0.952h-5.714c-0.526 0-0.952-0.426-0.952-0.952s0.426-0.952 0.952-0.952h4.762v-13.333h-13.333v4.762c0 0.526-0.426 0.952-0.952 0.952s-0.952-0.426-0.952-0.952v-5.714z"></path>
<path fill="#fff" style="fill: var(--color1, #fff)" d="M4.571 11.238c0-0.526 0.426-0.952 0.952-0.952h15.238c0.526 0 0.952 0.426 0.952 0.952v15.238c0 0.526-0.426 0.952-0.952 0.952h-15.238c-0.526 0-0.952-0.426-0.952-0.952v-15.238zM6.476 12.19v13.333h13.333v-13.333h-13.333z"></path>
</symbol>
<symbol id="i-DiscordLogo" viewBox="0 0 32 32">
<path  d="M11.921 19.394c0.803 0 1.455-0.651 1.455-1.455s-0.651-1.455-1.455-1.455c-0.803 0-1.455 0.651-1.455 1.455s0.651 1.455 1.455 1.455z"></path>
<path  d="M19.678 19.394c0.803 0 1.455-0.651 1.455-1.455s-0.651-1.455-1.455-1.455c-0.803 0-1.455 0.651-1.455 1.455s0.651 1.455 1.455 1.455z"></path>
<path  d="M15.792 10.182c-2.102-0.016-4.194 0.297-6.2 0.925-0.511 0.16-1.055-0.124-1.215-0.635s0.124-1.055 0.635-1.215c2.196-0.688 4.486-1.030 6.787-1.014 2.301-0.016 4.591 0.326 6.787 1.014 0.511 0.16 0.795 0.704 0.635 1.215s-0.704 0.795-1.215 0.635c-2.006-0.629-4.098-0.941-6.2-0.925h-0.014z"></path>
<path  d="M8.377 21.528c0.16-0.511 0.704-0.795 1.215-0.635 2.006 0.629 4.098 0.941 6.2 0.925h0.014c2.102 0.015 4.194-0.297 6.2-0.925 0.511-0.16 1.055 0.124 1.215 0.635s-0.124 1.055-0.635 1.215c-2.196 0.688-4.486 1.030-6.787 1.014-2.301 0.016-4.591-0.326-6.787-1.014-0.511-0.16-0.795-0.704-0.635-1.215z"></path>
<path  d="M19.891 5.149c0.417-0.235 0.907-0.309 1.375-0.207 1.278 0.277 2.529 0.665 3.738 1.161 0.272 0.105 0.517 0.271 0.715 0.486 0.2 0.217 0.347 0.478 0.429 0.761l4.107 13.716c0.107 0.357 0.11 0.738 0.007 1.097s-0.306 0.68-0.585 0.927l-0.005 0.004c-2.005 1.744-4.721 3.065-7.807 3.821-0.429 0.109-0.882 0.067-1.283-0.12-0.399-0.186-0.722-0.505-0.914-0.901l-1.463-2.901c-0.241-0.478-0.049-1.061 0.429-1.302s1.061-0.049 1.302 0.429l1.468 2.911c2.849-0.699 5.267-1.898 6.993-3.4l0.637 0.732-0.642-0.727c0.002-0.002 0.003-0.004 0.004-0.006s0.001-0.005 0-0.007l-4.108-13.717c-0.003-0.001-0.007-0.003-0.010-0.004-1.108-0.455-2.254-0.811-3.425-1.065l-0.002-0c-0.003-0.001-0.006-0-0.009 0.001s-0.004 0.003-0.005 0.006l-0.955 2.889c-0.168 0.509-0.716 0.784-1.225 0.616s-0.784-0.717-0.616-1.225l0.96-2.905c0.155-0.454 0.471-0.835 0.889-1.071z"></path>
<path  d="M10.755 6.839c-0.003-0.001-0.006-0.002-0.009-0.001l-0.002 0c-1.171 0.254-2.317 0.61-3.425 1.065-0.003 0.001-0.007 0.003-0.010 0.004l-4.108 13.716c-0.001 0.002-0.001 0.005-0 0.007s0.002 0.004 0.003 0.005c1.726 1.5 4.143 2.698 6.989 3.396l0.001-0.002 1.467-2.909c0.241-0.478 0.824-0.67 1.302-0.429s0.67 0.824 0.429 1.302l-1.463 2.901c-0.192 0.396-0.515 0.715-0.914 0.901-0.401 0.187-0.854 0.23-1.283 0.12-3.086-0.756-5.802-2.077-7.807-3.821l-0.005-0.004c-0.28-0.247-0.483-0.569-0.585-0.927s-0.1-0.739 0.007-1.096c-0 0 0 0 0 0l4.108-13.716c0.082-0.283 0.229-0.544 0.429-0.761 0.198-0.215 0.442-0.381 0.715-0.486 1.21-0.496 2.461-0.884 3.739-1.161 0.468-0.102 0.957-0.028 1.374 0.207s0.734 0.617 0.889 1.071l0.003 0.008 0.958 2.897c0.168 0.508-0.108 1.057-0.616 1.225s-1.057-0.108-1.225-0.616l-0.955-2.889c-0.001-0.002-0.003-0.005-0.005-0.006z"></path>
</symbol>
<symbol id="i-EnvelopeSimple" viewBox="0 0 32 32">
<path  d="M3 7c0-0.552 0.448-1 1-1h24c0.552 0 1 0.448 1 1v17c0 0.53-0.211 1.039-0.586 1.414s-0.884 0.586-1.414 0.586h-22c-0.53 0-1.039-0.211-1.414-0.586s-0.586-0.884-0.586-1.414v-17zM5 8v16h22v-16h-22z"></path>
<path  d="M3.263 6.324c0.373-0.407 1.006-0.435 1.413-0.061l11.324 10.38 11.324-10.38c0.407-0.373 1.040-0.346 1.413 0.061s0.346 1.040-0.061 1.413l-12 11c-0.382 0.351-0.969 0.351-1.351 0l-12-11c-0.407-0.373-0.435-1.006-0.061-1.413z"></path>
</symbol>
<symbol id="i-Eye" viewBox="0 0 32 32">
<path  d="M4.543 10.793c2.384-2.384 6.125-4.793 11.457-4.793s9.073 2.409 11.457 4.793c1.189 1.189 2.046 2.376 2.608 3.268 0.281 0.447 0.49 0.821 0.629 1.088 0.070 0.134 0.123 0.24 0.159 0.316 0.018 0.038 0.032 0.068 0.042 0.089l0.012 0.026 0.004 0.008 0.001 0.003 0 0.001c0 0 0 0.001-0.913 0.407 0.914 0.406 0.914 0.407 0.913 0.407l-0 0.001-0.001 0.003-0.004 0.008-0.012 0.026c-0.010 0.022-0.024 0.052-0.042 0.089-0.036 0.076-0.089 0.182-0.159 0.316-0.14 0.267-0.348 0.642-0.629 1.088-0.561 0.892-1.419 2.079-2.608 3.268-2.384 2.384-6.124 4.793-11.457 4.793s-9.073-2.409-11.457-4.793c-1.189-1.189-2.046-2.376-2.608-3.268-0.281-0.447-0.49-0.821-0.629-1.088-0.070-0.134-0.123-0.24-0.159-0.316-0.018-0.038-0.032-0.068-0.042-0.089l-0.012-0.026-0.004-0.008-0.001-0.003-0-0.001c-0-0-0-0.001 0.913-0.407-0.914-0.406-0.914-0.407-0.913-0.407l0.002-0.004 0.004-0.008 0.012-0.026c0.010-0.022 0.024-0.052 0.042-0.089 0.036-0.076 0.089-0.182 0.159-0.316 0.14-0.267 0.348-0.642 0.629-1.088 0.561-0.892 1.419-2.079 2.608-3.268zM2 16l-0.914-0.406c-0.115 0.259-0.115 0.554 0 0.812l0.914-0.406zM3.118 16c0.118 0.22 0.287 0.52 0.509 0.873 0.501 0.796 1.269 1.858 2.33 2.92 2.116 2.116 5.375 4.207 10.043 4.207s7.927-2.091 10.043-4.207c1.061-1.061 1.829-2.124 2.33-2.92 0.223-0.354 0.392-0.653 0.509-0.873-0.118-0.22-0.287-0.52-0.509-0.873-0.501-0.796-1.269-1.858-2.33-2.919-2.116-2.116-5.376-4.207-10.043-4.207s-7.927 2.091-10.043 4.207c-1.061 1.061-1.829 2.124-2.33 2.919-0.223 0.354-0.392 0.653-0.509 0.873zM30 16l0.914 0.406c0.115-0.259 0.115-0.554 0-0.812l-0.914 0.406z"></path>
<path  d="M16 12c-2.209 0-4 1.791-4 4s1.791 4 4 4c2.209 0 4-1.791 4-4s-1.791-4-4-4zM10 16c0-3.314 2.686-6 6-6s6 2.686 6 6c0 3.314-2.686 6-6 6s-6-2.686-6-6z"></path>
</symbol>
<symbol id="i-Globe" viewBox="0 0 32 32">
<path fill="#858584" style="fill: var(--color3, #858584)" d="M16 5c-6.075 0-11 4.925-11 11s4.925 11 11 11c6.075 0 11-4.925 11-11s-4.925-11-11-11zM3 16c0-7.18 5.82-13 13-13s13 5.82 13 13c0 7.18-5.82 13-13 13s-13-5.82-13-13z"></path>
<path fill="#858584" style="fill: var(--color3, #858584)" d="M3.688 12c0-0.552 0.448-1 1-1h22.625c0.552 0 1 0.448 1 1s-0.448 1-1 1h-22.625c-0.552 0-1-0.448-1-1z"></path>
<path fill="#858584" style="fill: var(--color3, #858584)" d="M3.688 20c0-0.552 0.448-1 1-1h22.625c0.552 0 1 0.448 1 1s-0.448 1-1 1h-22.625c-0.552 0-1-0.448-1-1z"></path>
<path fill="#858584" style="fill: var(--color3, #858584)" d="M13.384 8.138c-0.84 1.961-1.384 4.74-1.384 7.862s0.544 5.901 1.384 7.862c0.421 0.982 0.896 1.713 1.373 2.184 0.473 0.467 0.892 0.629 1.243 0.629s0.771-0.162 1.244-0.629c0.477-0.471 0.952-1.202 1.373-2.184 0.84-1.961 1.384-4.74 1.384-7.862s-0.544-5.901-1.384-7.862c-0.421-0.982-0.896-1.713-1.373-2.184-0.473-0.467-0.892-0.629-1.244-0.629s-0.771 0.162-1.244 0.629c-0.477 0.471-0.952 1.202-1.373 2.184zM13.351 4.531c0.724-0.715 1.62-1.206 2.649-1.206s1.925 0.491 2.649 1.206c0.72 0.711 1.322 1.689 1.806 2.82 0.97 2.264 1.545 5.323 1.545 8.649s-0.575 6.385-1.545 8.649c-0.484 1.131-1.086 2.109-1.806 2.82-0.724 0.715-1.62 1.206-2.649 1.206s-1.925-0.491-2.649-1.206c-0.72-0.711-1.322-1.689-1.806-2.82-0.97-2.264-1.545-5.323-1.545-8.649s0.575-6.385 1.545-8.649c0.484-1.13 1.086-2.109 1.806-2.82z"></path>
</symbol>
<symbol id="i-InstagramLogo" viewBox="0 0 32 32">
<path d="M15.799 12.121c-2.142 0-3.879 1.737-3.879 3.879s1.737 3.879 3.879 3.879c2.142 0 3.879-1.737 3.879-3.879s-1.737-3.879-3.879-3.879zM9.981 16c0-3.213 2.605-5.818 5.818-5.818s5.818 2.605 5.818 5.818c0 3.213-2.605 5.818-5.818 5.818s-5.818-2.605-5.818-5.818z"></path>
<path d="M10.466 5.818c-2.678 0-4.848 2.171-4.848 4.848v10.667c0 2.678 2.171 4.849 4.848 4.849h10.667c2.678 0 4.848-2.171 4.848-4.849v-10.667c0-2.678-2.171-4.848-4.849-4.848h-10.667zM3.678 10.667c0-3.749 3.039-6.788 6.788-6.788h10.667c3.749 0 6.788 3.039 6.788 6.788v10.667c0 3.749-3.039 6.788-6.788 6.788h-10.667c-3.749 0-6.788-3.039-6.788-6.788v-10.667z"></path>
<path d="M22.102 11.152c0.803 0 1.455-0.651 1.455-1.455s-0.651-1.455-1.455-1.455c-0.803 0-1.455 0.651-1.455 1.455s0.651 1.455 1.455 1.455z"></path>
</symbol>
<symbol id="i-LockKey" viewBox="0 0 32 32">
<path fill="#bdbdbd" style="fill: var(--color4, #bdbdbd)" d="M16 16c-0.828 0-1.5 0.672-1.5 1.5s0.672 1.5 1.5 1.5c0.828 0 1.5-0.672 1.5-1.5s-0.672-1.5-1.5-1.5zM12.5 17.5c0-1.933 1.567-3.5 3.5-3.5s3.5 1.567 3.5 3.5c0 1.933-1.567 3.5-3.5 3.5s-3.5-1.567-3.5-3.5z"></path>
<path fill="#bdbdbd" style="fill: var(--color4, #bdbdbd)" d="M16 19c0.552 0 1 0.448 1 1v3c0 0.552-0.448 1-1 1s-1-0.448-1-1v-3c0-0.552 0.448-1 1-1z"></path>
<path fill="#bdbdbd" style="fill: var(--color4, #bdbdbd)" d="M4 12c0-1.105 0.895-2 2-2h20c1.105 0 2 0.895 2 2v14c0 1.105-0.895 2-2 2h-20c-1.105 0-2-0.895-2-2v-14zM26 12h-20v14h20v-14z"></path>
<path fill="#bdbdbd" style="fill: var(--color4, #bdbdbd)" d="M16 3c-0.928 0-1.819 0.369-2.475 1.025s-1.025 1.547-1.025 2.475v4.5c0 0.552-0.448 1-1 1s-1-0.448-1-1v-4.5c0-1.459 0.579-2.858 1.611-3.889s2.43-1.611 3.889-1.611c1.459 0 2.858 0.579 3.889 1.611s1.611 2.43 1.611 3.889v4.5c0 0.552-0.448 1-1 1s-1-0.448-1-1v-4.5c0-0.928-0.369-1.819-1.025-2.475s-1.547-1.025-2.475-1.025z"></path>
</symbol>
<symbol id="i-MagicWand" viewBox="0 0 32 32">
<path fill="none" stroke="#fff" stroke-width="0.96" stroke-miterlimit="4" stroke-linecap="round" stroke-linejoin="round" style="stroke: var(--color1, #fff)" d="M27 16v6"></path>
<path fill="none" stroke="#fff" stroke-width="0.96" stroke-miterlimit="4" stroke-linecap="round" stroke-linejoin="round" style="stroke: var(--color1, #fff)" d="M24 19h6"></path>
<path fill="none" stroke="#fff" stroke-width="0.96" stroke-miterlimit="4" stroke-linecap="round" stroke-linejoin="round" style="stroke: var(--color1, #fff)" d="M10.5 5v5"></path>
<path fill="none" stroke="#fff" stroke-width="0.96" stroke-miterlimit="4" stroke-linecap="round" stroke-linejoin="round" style="stroke: var(--color1, #fff)" d="M8 7.5h5"></path>
<path fill="none" stroke="#fff" stroke-width="0.96" stroke-miterlimit="4" stroke-linecap="round" stroke-linejoin="round" style="stroke: var(--color1, #fff)" d="M21 23v4"></path>
<path fill="none" stroke="#fff" stroke-width="0.96" stroke-miterlimit="4" stroke-linecap="round" stroke-linejoin="round" style="stroke: var(--color1, #fff)" d="M19 25h4"></path>
<path fill="none" stroke="#fff" stroke-width="0.96" stroke-miterlimit="4" stroke-linecap="round" stroke-linejoin="round" style="stroke: var(--color1, #fff)" d="M23.303 4.704l-18.588 18.588c-0.391 0.391-0.391 1.024 0 1.414l2.585 2.585c0.391 0.391 1.024 0.391 1.414 0l18.588-18.588c0.391-0.391 0.391-1.024 0-1.414l-2.585-2.585c-0.391-0.391-1.024-0.391-1.414 0z"></path>
<path fill="none" stroke="#fff" stroke-width="0.96" stroke-miterlimit="4" stroke-linecap="round" stroke-linejoin="round" style="stroke: var(--color1, #fff)" d="M18 10l4 4"></path>
</symbol>
<symbol id="i-MagnifyingGlass" viewBox="0 0 32 32">
<path fill="#fff" style="fill: var(--color1, #fff)" d="M14.5 5c-5.247 0-9.5 4.253-9.5 9.5s4.253 9.5 9.5 9.5c5.247 0 9.5-4.253 9.5-9.5s-4.253-9.5-9.5-9.5zM3 14.5c0-6.351 5.149-11.5 11.5-11.5s11.5 5.149 11.5 11.5c0 6.351-5.149 11.5-11.5 11.5s-11.5-5.149-11.5-11.5z"></path>
<path fill="#fff" style="fill: var(--color1, #fff)" d="M21.217 21.217c0.391-0.391 1.024-0.391 1.414 0l6.075 6.075c0.391 0.391 0.391 1.024 0 1.414s-1.024 0.391-1.414 0l-6.075-6.075c-0.391-0.391-0.391-1.024 0-1.414z"></path>
</symbol>
<symbol id="i-MusicNotes" viewBox="0 0 32 32">
<path fill="none" stroke="#fff" stroke-width="0.96" stroke-miterlimit="4" stroke-linecap="round" stroke-linejoin="round" style="stroke: var(--color1, #fff)" d="M22.5 25c1.933 0 3.5-1.567 3.5-3.5s-1.567-3.5-3.5-3.5c-1.933 0-3.5 1.567-3.5 3.5s1.567 3.5 3.5 3.5z"></path>
<path fill="none" stroke="#fff" stroke-width="0.96" stroke-miterlimit="4" stroke-linecap="round" stroke-linejoin="round" style="stroke: var(--color1, #fff)" d="M6.5 29c1.933 0 3.5-1.567 3.5-3.5s-1.567-3.5-3.5-3.5c-1.933 0-3.5 1.567-3.5 3.5s1.567 3.5 3.5 3.5z"></path>
<path fill="none" stroke="#fff" stroke-width="0.96" stroke-miterlimit="4" stroke-linecap="round" stroke-linejoin="round" style="stroke: var(--color1, #fff)" d="M26 10l-16 4"></path>
<path fill="none" stroke="#fff" stroke-width="0.96" stroke-miterlimit="4" stroke-linecap="round" stroke-linejoin="round" style="stroke: var(--color1, #fff)" d="M10 25.5v-17.5l16-4v17.5"></path>
</symbol>
<symbol id="i-PaintBrush" viewBox="0 0 32 32">
<path fill="none" stroke="#fff" stroke-width="0.96" stroke-miterlimit="4" stroke-linecap="round" stroke-linejoin="round" style="stroke: var(--color1, #fff)" d="M2.5 27h9c1.286 0 2.542-0.381 3.611-1.095s1.902-1.729 2.394-2.917c0.492-1.188 0.621-2.495 0.37-3.756s-0.87-2.419-1.779-3.328-2.067-1.528-3.328-1.779c-1.261-0.251-2.568-0.122-3.756 0.37s-2.203 1.325-2.917 2.394c-0.714 1.069-1.095 2.326-1.095 3.611 0 4.5-2.5 6.5-2.5 6.5z"></path>
<path fill="none" stroke="#fff" stroke-width="0.96" stroke-miterlimit="4" stroke-linecap="round" stroke-linejoin="round" style="stroke: var(--color1, #fff)" d="M14.050 14.525c2.4-3.237 8.5-10.65 14.075-10.65 0 5.575-7.412 11.675-10.65 14.075"></path>
<path fill="none" stroke="#fff" stroke-width="0.96" stroke-miterlimit="4" stroke-linecap="round" stroke-linejoin="round" style="stroke: var(--color1, #fff)" d="M16.625 11.325c1.694 0.956 3.094 2.356 4.050 4.050"></path>
</symbol>
<symbol id="i-Planet" viewBox="0 0 32 32">
<path fill="none" stroke="#fff" stroke-width="0.96" stroke-miterlimit="4" stroke-linecap="round" stroke-linejoin="round" style="stroke: var(--color1, #fff)" d="M16 27c6.075 0 11-4.925 11-11s-4.925-11-11-11c-6.075 0-11 4.925-11 11s4.925 11 11 11z"></path>
<path fill="none" stroke="#fff" stroke-width="0.96" stroke-miterlimit="4" stroke-linecap="round" stroke-linejoin="round" style="stroke: var(--color1, #fff)" d="M23.025 7.537c3.462-0.95 6.063-0.862 6.837 0.463 1.375 2.388-3.712 7.912-11.363 12.325s-14.975 6.063-16.363 3.675c-0.762-1.325 0.462-3.625 3.013-6.15"></path>
</symbol>
<symbol id="i-Plus" viewBox="0 0 32 32">
<path fill="#a259ff" style="fill: var(--color2, #a259ff)" d="M4 16c0-0.552 0.448-1 1-1h22c0.552 0 1 0.448 1 1s-0.448 1-1 1h-22c-0.552 0-1-0.448-1-1z"></path>
<path fill="#a259ff" style="fill: var(--color2, #a259ff)" d="M16 4c0.552 0 1 0.448 1 1v22c0 0.552-0.448 1-1 1s-1-0.448-1-1v-22c0-0.552 0.448-1 1-1z"></path>
</symbol>
<symbol id="i-rocket" viewBox="0 0 32 32">
<path  d="M9.873 19.919c0.176 0.524-0.106 1.091-0.629 1.267-1.695 0.57-2.596 1.993-3.078 3.44-0.191 0.575-0.307 1.128-0.376 1.585 0.457-0.069 1.011-0.185 1.585-0.376 1.447-0.482 2.87-1.383 3.44-3.078 0.176-0.523 0.743-0.805 1.267-0.629s0.805 0.743 0.629 1.267c-0.855 2.542-2.97 3.76-4.704 4.338-0.876 0.292-1.696 0.436-2.295 0.508-0.301 0.036-0.549 0.054-0.726 0.064-0.088 0.005-0.159 0.007-0.21 0.008-0.025 0.001-0.045 0.001-0.060 0.001l-0.018 0h-0.009c-0 0-0.001 0-0.001-1-1 0-1-0-1-0.001v-0.003l0-0.006 0-0.018c0-0.015 0.001-0.035 0.001-0.060 0.001-0.050 0.004-0.121 0.008-0.209 0.009-0.177 0.028-0.425 0.064-0.726 0.072-0.599 0.216-1.419 0.508-2.295 0.577-1.734 1.795-3.849 4.338-4.704 0.523-0.176 1.091 0.106 1.267 0.629zM4.688 27.313h-1c0 0.552 0.448 1 1 1v-1z"></path>
<path  d="M26.474 5.527c0.167 1.161 0.231 4.018-2.694 6.942l-7.78 7.78-4.248-4.248 7.78-7.78c2.924-2.924 5.781-2.861 6.942-2.694zM26.764 3.548c-1.596-0.231-5.155-0.233-8.646 3.258l-8.488 8.488c-0.188 0.188-0.293 0.442-0.293 0.707s0.105 0.52 0.293 0.707l5.662 5.663c0.391 0.391 1.024 0.391 1.414 0l8.488-8.488c3.491-3.491 3.489-7.050 3.258-8.646-0.058-0.427-0.255-0.824-0.56-1.129s-0.701-0.502-1.129-0.56z"></path>
<path  d="M23.075 13.588c0.552 0 1 0.448 1 1v8.075l-0 0.014c-0.007 0.525-0.221 1.026-0.595 1.395l-4.036 4.048c-0.256 0.256-0.577 0.437-0.928 0.525s-0.72 0.079-1.066-0.027c-0.346-0.105-0.658-0.303-0.901-0.571s-0.408-0.597-0.479-0.952c-0-0 0 0 0 0l-1.050-5.237c-0.109-0.541 0.242-1.068 0.784-1.177s1.069 0.242 1.177 0.784l1.050 5.239 4.044-4.057v-8.061c0-0.552 0.448-1 1-1z"></path>
<path  d="M9.324 7.925l0.014-0h8.075c0.552 0 1 0.448 1 1s-0.448 1-1 1h-8.061l-0.008 0.008-0-0-4.047 4.036 5.238 1.050c0.541 0.109 0.892 0.636 0.784 1.177s-0.636 0.892-1.177 0.784l-5.236-1.050c-0-0-0.001-0-0.001-0-0.355-0.071-0.684-0.236-0.952-0.479s-0.466-0.555-0.571-0.901-0.114-0.715-0.027-1.066c0.088-0.351 0.269-0.672 0.525-0.928l0.002-0.002 4.047-4.034c0.369-0.374 0.87-0.588 1.395-0.595z"></path>
</symbol>
<symbol id="i-Swatches" viewBox="0 0 32 32">
<path fill="none" stroke="#fff" stroke-width="0.96" stroke-miterlimit="4" stroke-linecap="round" stroke-linejoin="round" style="stroke: var(--color1, #fff)" d="M4.587 21.625l3.025-17.137c0.021-0.129 0.068-0.253 0.137-0.364s0.16-0.207 0.267-0.283c0.107-0.076 0.228-0.129 0.356-0.158s0.26-0.031 0.389-0.008l6.9 1.212c0.261 0.049 0.492 0.198 0.644 0.415s0.212 0.486 0.169 0.747l-3.037 17.238c-0.208 1.161-0.862 2.194-1.822 2.878s-2.15 0.966-3.315 0.784c-2.487-0.4-4.15-2.837-3.713-5.325z"></path>
<path fill="none" stroke="#fff" stroke-width="0.96" stroke-miterlimit="4" stroke-linecap="round" stroke-linejoin="round" style="stroke: var(--color1, #fff)" d="M14.787 15.6l9.112-3.313c0.124-0.046 0.256-0.066 0.388-0.061s0.262 0.037 0.381 0.093c0.12 0.056 0.227 0.135 0.316 0.232s0.158 0.212 0.203 0.336l2.4 6.575c0.088 0.249 0.075 0.522-0.037 0.761s-0.315 0.424-0.563 0.514l-16.45 5.988"></path>
<path fill="none" stroke="#fff" stroke-width="0.96" stroke-miterlimit="4" stroke-linecap="round" stroke-linejoin="round" style="stroke: var(--color1, #fff)" d="M27.5 20.313v5.688c0 0.265-0.105 0.52-0.293 0.707s-0.442 0.293-0.707 0.293h-17.5"></path>
<path fill="#fff" style="fill: var(--color1, #fff)" d="M9 24c0.828 0 1.5-0.672 1.5-1.5s-0.672-1.5-1.5-1.5c-0.828 0-1.5 0.672-1.5 1.5s0.672 1.5 1.5 1.5z"></path>
</symbol>
<symbol id="i-TwitterLogo" viewBox="0 0 32 32">
<path fill="none"  stroke-width="1.9394" stroke-miterlimit="4" stroke-linecap="round" stroke-linejoin="round"  d="M15.799 11.152c0-2.667 2.242-4.885 4.909-4.849 0.934 0.011 1.845 0.291 2.623 0.807s1.391 1.246 1.765 2.102h4.279l-3.915 3.915c-0.253 3.933-1.994 7.622-4.869 10.317s-6.669 4.194-10.61 4.192c-3.879 0-4.848-1.455-4.848-1.455s3.879-1.455 5.818-4.364c0 0-7.758-3.879-5.818-14.546 0 0 4.848 4.849 10.667 5.818v-1.939z"></path>
</symbol>
<symbol id="i-User" viewBox="0 0 32 32">
<path fill="#fff" style="fill: var(--color1, #fff)" d="M16 5c-3.866 0-7 3.134-7 7s3.134 7 7 7c3.866 0 7-3.134 7-7s-3.134-7-7-7zM7 12c0-4.971 4.029-9 9-9s9 4.029 9 9c0 4.971-4.029 9-9 9s-9-4.029-9-9z"></path>
<path fill="#fff" style="fill: var(--color1, #fff)" d="M16 20.998c-2.282 0-4.524 0.601-6.5 1.742s-3.617 2.782-4.758 4.759c-0.276 0.478-0.888 0.642-1.366 0.366s-0.642-0.888-0.366-1.366c1.316-2.281 3.21-4.175 5.49-5.491s4.867-2.010 7.501-2.010 5.22 0.693 7.501 2.010c2.28 1.317 4.174 3.211 5.49 5.491 0.276 0.478 0.112 1.090-0.366 1.366s-1.090 0.112-1.366-0.366c-1.141-1.977-2.782-3.618-4.758-4.759s-4.218-1.742-6.5-1.742z"></path>
</symbol>
<symbol id="i-VideoCamera" viewBox="0 0 32 32">
<path fill="none" stroke="#fff" stroke-width="0.96" stroke-miterlimit="4" stroke-linecap="round" stroke-linejoin="round" style="stroke: var(--color1, #fff)" d="M3 7.5h16c1.061 0 2.078 0.421 2.828 1.172s1.172 1.768 1.172 2.828v12c0 0.265-0.105 0.52-0.293 0.707s-0.442 0.293-0.707 0.293h-16c-1.061 0-2.078-0.421-2.828-1.172s-1.172-1.768-1.172-2.828v-12c0-0.265 0.105-0.52 0.293-0.707s0.442-0.293 0.707-0.293v0z"></path>
<path fill="none" stroke="#fff" stroke-width="0.96" stroke-miterlimit="4" stroke-linecap="round" stroke-linejoin="round" style="stroke: var(--color1, #fff)" d="M23 14l7-4v12l-7-4"></path>
</symbol>
<symbol id="i-YoutubeLogo" viewBox="0 0 32 32">
<path  d="M13.402 11.266c0.315-0.169 0.698-0.15 0.995 0.048l5.818 3.879c0.27 0.18 0.432 0.483 0.432 0.807s-0.162 0.627-0.432 0.807l-5.818 3.879c-0.298 0.198-0.68 0.217-0.995 0.048s-0.512-0.497-0.512-0.855v-7.758c0-0.358 0.197-0.686 0.512-0.855zM14.83 13.933v4.134l3.1-2.067-3.1-2.067z"></path>
<path  d="M15.798 5.383h0.080c0.053 0 0.13 0 0.229 0.002 0.197 0.002 0.482 0.007 0.836 0.017 0.707 0.021 1.693 0.066 2.809 0.16 2.207 0.186 5.018 0.573 7.181 1.4l0.014 0.006c0.425 0.17 0.804 0.438 1.107 0.781s0.52 0.753 0.635 1.196l0.001 0.004c0.302 1.182 0.685 3.373 0.685 7.052s-0.383 5.871-0.685 7.052l-0.001 0.004c-0.115 0.443-0.333 0.853-0.635 1.196s-0.682 0.611-1.107 0.781l-0.014 0.006c-2.164 0.827-4.974 1.213-7.181 1.4-1.116 0.094-2.102 0.139-2.809 0.16-0.354 0.011-0.639 0.015-0.836 0.018-0.099 0.001-0.176 0.001-0.229 0.002h-0.157c-0.053-0-0.13-0-0.229-0.002-0.198-0.002-0.482-0.007-0.836-0.018-0.707-0.021-1.693-0.066-2.809-0.16-2.207-0.186-5.018-0.573-7.181-1.4l-0.014-0.006c-0.425-0.17-0.804-0.438-1.107-0.781s-0.52-0.753-0.635-1.196l-0.001-0.004c-0.302-1.182-0.685-3.373-0.685-7.052s0.383-5.871 0.685-7.052l0.001-0.004c0.115-0.443 0.333-0.853 0.635-1.196s0.682-0.611 1.107-0.781l0.014-0.006c2.164-0.827 4.974-1.213 7.181-1.4 1.116-0.094 2.102-0.139 2.809-0.16 0.354-0.011 0.639-0.015 0.836-0.017 0.099-0.001 0.176-0.001 0.229-0.002h0.077zM15.794 24.68l0.010-0 0.003 0h0.066c0.048-0 0.119-0 0.212-0.001 0.186-0.002 0.459-0.006 0.799-0.017 0.681-0.020 1.631-0.064 2.704-0.154 2.168-0.183 4.748-0.553 6.644-1.276 0.14-0.057 0.266-0.146 0.366-0.26 0.101-0.115 0.174-0.252 0.213-0.401 0.256-1.001 0.624-3.028 0.624-6.57s-0.368-5.569-0.624-6.57c-0.039-0.148-0.112-0.286-0.213-0.401-0.1-0.114-0.225-0.203-0.366-0.26-1.896-0.723-4.476-1.093-6.644-1.276-1.073-0.091-2.023-0.134-2.704-0.154-0.34-0.010-0.613-0.015-0.799-0.017-0.093-0.001-0.165-0.001-0.212-0.001h-0.149c-0.048 0-0.119 0-0.212 0.001-0.186 0.002-0.459 0.006-0.799 0.017-0.681 0.020-1.631 0.064-2.704 0.154-2.168 0.183-4.748 0.553-6.644 1.276-0.14 0.057-0.266 0.146-0.366 0.26-0.101 0.115-0.174 0.252-0.213 0.401-0.256 1.001-0.624 3.028-0.624 6.57s0.368 5.569 0.624 6.57c0.039 0.148 0.112 0.285 0.213 0.401 0.1 0.114 0.226 0.203 0.366 0.26 1.896 0.723 4.476 1.093 6.644 1.276 1.073 0.091 2.023 0.134 2.704 0.154 0.34 0.010 0.612 0.015 0.799 0.017 0.093 0.001 0.165 0.001 0.212 0.001h0.069z"></path>
</symbol>
</defs>
</svg>
